<?xml version="1.0" encoding="UTF-8"?><svg id="a" xmlns="http://www.w3.org/2000/svg" viewBox="0 0 500 500"><defs><style>.b{fill:#84b89a;}.b,.c{stroke-width:0px;}.c{fill:#e4821b;}.d{fill:none;stroke:#84b89a;stroke-linecap:round;stroke-miterlimit:10;stroke-width:3px;}</style></defs><path class="b" d="M251.95,236.49c0,.23-.05.42-.14.51-.65.09-1.63.23-2.09.65-.65,0-1.3.33-1.95.56-.23-.05-.42-.05-.56-.14-.56.19-1.3.19-1.86.14-.09.05-.23.05-.19.23-.47.14-.6-.09-.84-.23.23-.19.05-.79.33-.93-.19-.14-.09-.51-.28-.65.19.09.09-.46,0-.51.19,0,0-.09.14-.19-.19-2-.05-4.74-.32-6.78.28-1.86-.05-3.76-.14-6.23,0-1.35,0-2.79-.05-4,0-.74-.14-1.35-.05-2.18-.14.09-.28.46-.19.6-.19.14-.19.46-.37.65-.05,1.44-.79,2.46-.98,3.76-.05.19.09.51-.14.65-.09,1.02-.6,2.09-.7,2.93,0,.14-.09.14-.14.23.05.65-.33,1.44-.79,1.95,0,.7-.42,1.3-.65,2.09-.05.05-.14.05-.28.05.05.19.14,0,.19.09-.09.33-.09.74-.37.88.09.14.19.6-.09.7.23.7-.09,1.49,0,2.14,0,.09-.09.09-.14.09.05.7-.14,1.67-.19,2.6-.37.33-.98.14-1.44.42-.93-.28-2.04.28-3.07.33-.6,0-1.12-.09-1.58-.05-.33.05-.65.19-.88.14-.79-.19-.51-1.39-.88-1.95-.09-1.67-.79-2.97-1.3-4.6,0-.14-.09-.19-.19-.23.23-.14-.09-.6.05-.7,0-.09-.09-.05-.14-.05.05-.42-.05-.84-.37-1.12-.51-1.02-.98-1.95-1.39-2.88-.05-.37-.37-1.07-.6-1.35-.05-.05-.09-.09-.14-.09-.09-.6-.6-1.67-.79-2.32-.37-1.72-.65-2.88-1.07-4.51-.05-.05-.09-.09-.09-.05-.19-.05.05-.46-.19-.46.05.46-.19,1.21.09,1.35.05.14-.14.05-.14.14s.09.05.14.09c-.19.46.05,1.07,0,1.58,0,.37.05.98.09,1.49,0,.6.05,1.44,0,2.09-.05.23-.05.6.05.93-.14,0,0,.23-.19.14.28.84-.05,2.18.23,2.88,0,1.67-.05,2.65.19,3.95,0,.23-.23.51-.19.79,0,.09.14.14.14.19,0,.7-.14,1.44-.14,2.18,0,.84.37,1.63.51,2.46-.23.14-.47.28-.74.42-.46-.05-.84.05-1.07,0-.05,0-.05.14,0,.14,0,.14-.19,0-.14-.05-.09,0-.05.19-.09.19-.84-.09-1.53.51-2.56.6-.14,0-.33-.05-.51,0-.65.14-1.49.56-2.23.14-.33.09-1.02.09-1.53-.09-.09-.42.14-.79.28-.79-.14-.28,0-.7.14-.93.05-.14-.09-.14-.19-.14.19-.42.28-.93.33-1.44,0-.05-.09-.14-.14-.09.05-.28.23-.56.28-.84,0-.28-.14-.65.05-.88-.09-1.3.14-2.56.23-3.81,0-.46.14-.93.19-1.35.09-.88,0-2.09-.05-3.11.19-.05.05-.09.14-.23,0-.09-.14-.05-.19-.05,0-.09.09-.14.19-.14-.14-.28.09-.84-.14-1.21.19-.6,0-1.3.14-1.86-.56-1.9-.28-3.9-.51-6.18,0-.05,0-.09-.09-.09.05-.84.28-1.67,0-2.37.23-.14-.05-.79-.05-1.16-.05-.6.05-1.3.09-2,.05-.88-.14-1.63.19-2.37.09-.28-.09-.28-.09-.46.19,0,.05-.09.09-.19.19-.23.79.05.98-.14.09.05.14.09.14.19.05-.05.05-.14.14-.14-.05,0,.19.14.19.14.28-.14,1.49-.14,1.67-.05l-.09.05c.98.09,2-.28,3.02.28.88.05,1.63-.05,2.18.19.51.14,1.07-.19,1.3.23,0,.19-.09.33-.14.42.32.56.6,1.16,1.02,1.63,0,.09-.05.09-.09.14.37.46.37,1.3.84,1.67.09.56.51,1.21.84,1.72.09.79.47,1.53.88,2.18-.05.37.19,1.07.37,1.44.37,1.02.84,2,1.21,3.02,0,.37.19.98.42,1.3,0,.14-.09.09-.05.23.46.98.74,2.04,1.02,3.16.19-.46.7-1.07.7-1.53.05-.19.23-.19.28-.33.14-.33.19-.74.37-1.02.09-.23.7-.93.56-1.16.42-.74.65-1.35,1.12-2.04,0-.19.09-.23,0-.28.33-.33.51-.74.6-1.3.84-.79.88-1.95,1.39-2.93,0-.7.46-.93.46-1.63.74-1.77,1.3-3.44,1.67-5.39,1.21.09,2.46-.42,3.81-.51.19-.05.42.09.56.09.09,0,.23-.14.42-.19.51-.05,1.25.09,1.39-.33.37,0,.74,0,1.07.14.37-.37,1.44.09,1.35.56-.37.56-.19,1.53-.37,2.18.14.7.33,1.35.09,1.81.09.51.28,1.25.14,1.67.05.05.09.14.23.14-.37.14-.09.79-.09,1.35.05.37-.19.74.09.88-.23.7.09,1.49-.09,2.04,0,.09.14.05.14.14-.14.98,0,1.72.05,2.46-.05.09.05.09.09.14,0,.19-.19.51,0,.7,0,.09-.05.19-.09.19.14,1.95.42,3.72.42,5.53-.05,0-.09.05-.14.09.05-.05.14-.05.23-.05-.19.33.19.79,0,1.16.32.74.14,1.58.23,2.37.05.37.05.65.14.98,0,.19-.05.42,0,.56,0,.14.14.19.19.28.23.6.09,1.39.42,2,0,.79.19,1.77.51,2.42-.19.23.09.42.05.84.05.09.23.05.28.19Z"/><path class="b" d="M274.59,238.11c-.14.09-.23-.05-.37,0,0-.09,0-.23-.14-.23.05-.33.14-.7-.14-.65-.14-.88-.56-1.53-.65-2.56-.28-.33-.23-.74-.33-1.16-.09-.37,0-.7-.28-.88-.14-.88-.37-2-.74-2.79-.42.05-.7-.14-.88.05-2.83.19-5.25-.28-8.09.14-.42,1.02-.88,2.28-1.53,3.21l.19.19c-.51,1.25-.74,2.14-.88,3.58h-.23s.14.09.09.23c-.23,0-.14.05-.09.14-.05,0-.14-.05-.23-.05.05.14.23.05.28.19,0,.19-.14.28-.28.37-.93-.05-1.86.09-2.93.14.09-.23-.05-.14-.14-.28-.09.05-.05.23-.14.33-1.12.05-2.28,0-3.3-.19-.14.05-.09-.05-.09-.14-.23,0,.05.19-.19.14-.23-.14.14-.23-.14-.28.05-.28.33-.6.14-.79.28-.14.05-.51.37-.56-.14-.37.19-.7.23-1.07h.19c.84-2.51,2.09-5.39,2.97-8.32h.19c.05-.28,0-.33.05-.56h.14c.14-.6.46-1.53.56-2.28.32,0,.37-.84.37-1.16.19-.14.33-.42.23-.74,1.02-3.16,1.72-6.51,2.7-9.43,0-.14-.09-.14-.09-.28.33-.19.19-.88.47-1.07.09-.93.6-2,.74-3.02.19,0,.19-.23.42-.23.05-.6.42-.93.6-1.67h.19c0-.23.14-.33.09-.56,1.44.09,3.44-.14,4.93.19,0,.14-.23-.05-.19.14.05.09.23-.09.23-.19.7.23,1.07-.14,1.67.09.19.28,0,.79.51.93.23.51.23.88.6,1.21.19.7.42,1.72.7,2.6.09.33.19.74.51.88-.14.19,0,.46.09.65.28.7.84,1.44,1.07,2.09.09,0,.09.05.09.09,0,.09.05,0,.14,0,.23,1.49,1.07,2.51,1.39,3.81.37.56.42,1.44.93,1.86.28.65.6,1.67,1.02,2.37.23.84.51,1.86.79,2.56-.05.19.05.6.23.74-.14.46.19.84.23,1.25.05.14-.05.37,0,.56.09.28.28.56.33.84.19,1.21.74,2.83,1.16,4.09.05.09.19.19.19.33.05.09,0,.23,0,.28.05.09.14.09.19.14.14.37.14.74.28,1.07.09.14.28.33.28.6.05.14.23.14.32.23,0,.7.42,1.16.74,1.67-.05.05-.09.09-.14.09.33.23.65.51.65,1.12-.23.23-.7.09-.79-.14-.37.14-1.35.05-1.86,0-.32.28-.88.05-1.44.05-.74,0-2.56.14-3.16.19-.42.05-.74.33-1.02-.14ZM264.32,225.43c.46.05,1.39-.28,1.9-.28.51.14,1.3-.14,2-.14.09-.05,0-.23.19-.19.88-.05,1.63-.23,2.6-.46-.56-1.53-1.07-3.67-1.86-4.55-.09-.37,0-1.02-.09-1.39-.42-1.21-.84-2.37-1.25-3.48-.09.37-.37.79-.33,1.12l-.56.42c-.65,1.86-.74,3.58-1.67,5.11-.37,1.58-1.35,2.51-1.77,4.23.37-.05.7-.14.84-.37Z"/><path class="b" d="M302.38,237.88c-.56-.74-.7-1.16-1.35-1.77-.37-.7-.74-1.39-1.21-2-.37-1.49-.93-2.97-1.63-4.32v-.33c-.09-.14-.28-.46-.23-.65-.33-.6-.56-1.07-.84-1.77-.37-.42-.28-.93-.6-1.3.05-.05.05-.14.09-.19-.05-.09-.19-.14-.23-.23-.23-1.07-.46-1.63-.79-2.37-1.16.84-1.91,2.09-3.11,2.93-.32,2.65-.09,5.39-.23,8.09-.09.98-.6,2.14-.6,3.3-.19-.05-.23.05-.33.14-.37-.19-.65.14-.98.28-.33.09-.79.05-1.21.14-.84.19-1.77.7-2.83.6-.79-.05-1.67.23-1.95-.28.05-.46.19-.79.19-1.21.05-.14-.09-.09-.14-.09,0-.98.09-2,.09-3.07,0-.88-.09-1.77-.05-2.65.05-.98.33-2.04.37-3.07,0-.37-.09-.79-.05-1.16.05-.65.23-1.21.19-1.67,0-.33-.05-.09.05-.33.05-.05-.09-.28-.09-.28.05-.6.23-1.21.14-1.95-.05-.51.05-1.86-.19-2.79.33-1.53.05-3.11,0-4.32.14-.23.09-.79,0-1.12.09-.19.14-.65.14-1.07,0-.33,0-.7-.14-.84.28-.28.09-1.25,0-1.63.14-.65-.05-1.9-.05-2.97,0-.46.09-.93-.19-1.21.14-.14.05-.33.23-.51.84.14,1.58.14,2.51.05.46-.05,1.02.05,1.58,0,.46-.09,1.16-.42,1.67-.05.33-.23,1.12-.33,1.49.09-.23.7.09,1.3.19,1.9.09.84,0,1.86,0,2.79-.05.7,0,1.49,0,2.18,0,.09.09.23.09.33-.05.6-.37,1.35-.05,2-.28.56.19,1.3-.09,1.72.23.65,0,1.07.14,1.63.6-.14,1.12-1.25,1.67-1.44,1.44-1.91,2.6-3.07,3.95-4.88.56-.56,1.16-1.3,1.39-2,.84-1.25,2.09-2.32,2.65-3.76.23-.14.46-.46.42-.7.14-.28.6-.19.88-.33.88.6,2.28-.05,2.88.51.98.09,1.63.46,2.46.65,0,.14,0,.28.19.19,0,.23.05.37.09.56-.14.14-.19.33-.47.33.14.09.05.05.05.28-.19-.05-.05.19-.28.09-.09.33-.37.51-.6.7-.98,1.58-2.37,2.83-3.3,4.46-.65.46-.88,1.3-1.63,1.67-.74,1.21-1.72,2.23-2.65,3.21,1.12.42,1.26,1.58,1.67,2.79.14.51.42.93.6,1.39.33.79.84,1.39,1.16,2.23.23,0,.09.42.42.42-.09.23.14.42.33.65.46,1.21,1.35,2.51,1.86,3.9,0,.09.09.09.23.09-.19.14.09.51.23.65.32,1.07.79,1.91,1.16,2.88.23.23.33.56.51.74.84.14.74.79,1.12,1.35.05.7.46,1.58.6,2.04-.05.14-.14.23-.23.28-.19,0-.23-.09-.33-.09-1.72.05-3.58.28-5.07.46-.23.19-.6.23-.98.33-.33-.23-.56-.56-1.02-.65ZM291.27,206.1c-.09,0-.09.09-.19.09-.05.14.09.09.19.09v-.19Z"/><path class="b" d="M331.75,238.11c-.14.09-.23-.05-.37,0,0-.09,0-.23-.14-.23.05-.33.14-.7-.14-.65-.14-.88-.56-1.53-.65-2.56-.28-.33-.23-.74-.33-1.16-.09-.37,0-.7-.28-.88-.14-.88-.37-2-.74-2.79-.42.05-.7-.14-.88.05-2.83.19-5.25-.28-8.09.14-.42,1.02-.88,2.28-1.53,3.21l.19.19c-.51,1.25-.74,2.14-.88,3.58h-.23s.14.09.09.23c-.23,0-.14.05-.09.14-.05,0-.14-.05-.23-.05.05.14.23.05.28.19,0,.19-.14.28-.28.37-.93-.05-1.86.09-2.93.14.09-.23-.05-.14-.14-.28-.09.05-.05.23-.14.33-1.12.05-2.28,0-3.3-.19-.14.05-.09-.05-.09-.14-.23,0,.05.19-.19.14-.23-.14.14-.23-.14-.28.05-.28.33-.6.14-.79.28-.14.05-.51.37-.56-.14-.37.19-.7.23-1.07h.19c.84-2.51,2.09-5.39,2.97-8.32h.19c.05-.28,0-.33.05-.56h.14c.14-.6.46-1.53.56-2.28.32,0,.37-.84.37-1.16.19-.14.33-.42.23-.74,1.02-3.16,1.72-6.51,2.7-9.43,0-.14-.09-.14-.09-.28.33-.19.19-.88.47-1.07.09-.93.6-2,.74-3.02.19,0,.19-.23.42-.23.05-.6.42-.93.6-1.67h.19c0-.23.14-.33.09-.56,1.44.09,3.44-.14,4.93.19,0,.14-.23-.05-.19.14.05.09.23-.09.23-.19.7.23,1.07-.14,1.67.09.19.28,0,.79.51.93.23.51.23.88.6,1.21.19.7.42,1.72.7,2.6.09.33.19.74.51.88-.14.19,0,.46.09.65.28.7.84,1.44,1.07,2.09.09,0,.09.05.09.09,0,.09.05,0,.14,0,.23,1.49,1.07,2.51,1.39,3.81.37.56.42,1.44.93,1.86.28.65.6,1.67,1.02,2.37.23.84.51,1.86.79,2.56-.05.19.05.6.23.74-.14.46.19.84.23,1.25.05.14-.05.37,0,.56.09.28.28.56.33.84.19,1.21.74,2.83,1.16,4.09.05.09.19.19.19.33.05.09,0,.23,0,.28.05.09.14.09.19.14.14.37.14.74.28,1.07.09.14.28.33.28.6.05.14.23.14.32.23,0,.7.42,1.16.74,1.67-.05.05-.09.09-.14.09.33.23.65.51.65,1.12-.23.23-.7.09-.79-.14-.37.14-1.35.05-1.86,0-.32.28-.88.05-1.44.05-.74,0-2.56.14-3.16.19-.42.05-.74.33-1.02-.14ZM321.48,225.43c.46.05,1.39-.28,1.9-.28.51.14,1.3-.14,2-.14.09-.05,0-.23.19-.19.88-.05,1.63-.23,2.6-.46-.56-1.53-1.07-3.67-1.86-4.55-.09-.37,0-1.02-.09-1.39-.42-1.21-.84-2.37-1.25-3.48-.09.37-.37.79-.33,1.12l-.56.42c-.65,1.86-.74,3.58-1.67,5.11-.37,1.58-1.35,2.51-1.77,4.23.37-.05.7-.14.84-.37Z"/><path class="b" d="M363.35,238.21c-.93.09-1.53.05-2.28.14-1.35-.42-2.7.05-3.62-.98-.14-.05-.09,0-.28,0,0-.14,0-.19-.05-.28-.88-.51-1.44-1.39-2.28-2,.05-.37-.37-.65-.56-1.07-.32-.79-.37-1.86-.98-2.28-.09-.93-.65-1.72-.88-2.46-.33-.23-.19-.88-.65-.98.19-.42-.42-.7-.47-1.21-.79.19-1.86.6-2.83.46,0,2.32.05,5.25.14,7.85.05.28.23.51.28.74.19.98-.98.98-1.58,1.02-.09,0,0,.14-.09.14-.28-.14-.51.09-.7.14-.09.05-.05-.09-.09-.09-.28,0-.6.19-1.02.19-.42.05-.84.05-1.25,0-.09.05-.05.19-.14.19-.79-.19-1.16.19-1.86.23-.37-.37.05-.84-.28-1.12,0-.28.05-.56-.09-.65.33-2.32.19-4.51.19-6.83,0-.33-.09-.65-.09-.98,0-.79.19-1.49.28-2.32,0-.09-.14-.19-.14-.28.05-.33.23-.6.19-.93,0-.14-.14-.09-.19-.14.05-.09.09-.05.19-.09.19-4.04.09-8.74-.33-13.06-.05-.33-.19-.65-.19-1.02-.05-.56.19-1.16,0-1.67.14-.46.05-1.02.09-1.49,0-.09-.09-.05-.14-.05,0-.28.05-.42.14-.7,1.07.14,1.91-.28,3.02-.28,0,.05-.05.05-.05.09,1.35.05,2.51-.09,3.72-.05.42,0,.88-.28,1.35-.28.14,0,.37.09.56,0,.79-.23,1.63-.19,2.6-.23,1.26-.09,2.46-.05,3.76.28.93.09,2.14.28,2.79.84.65.09,1.26.37,1.67.56.05.05.05-.09.05-.09.28.14.51.46.88.37.23.46,1.02.42,1.21,1.02.14.05.23.09.37.09.05.51.74,1.12.79,1.63.79,1.21.7,3.16.98,4.32-.14.23-.14.19.05.28.05.93.42,2.23-.14,3.16.14,1.25-.42,2.42-1.3,3.3-.14.65-.37.93-.56,1.49-.65.33-.88,1.02-1.39,1.44-.79,0-1.25.56-1.86.79-.88.33-1.86.37-2.88.6.6.74,1.35,1.63,1.44,2.74.19.23.19.37.33.7.14.05.28.46.56.51-.05.05-.05.09-.09.09.79.65.98,1.81,1.53,2.65.6.84,1.53.7,2.93.74.28.14.51.37.79.19.09.14.23.23.33.37-.14.74-.56,1.39-.79,2.04,0,.09.05.23,0,.33-.09.23-.28.42-.33.7-.09.51.23,1.12-.23,1.35-.14-.05-.42-.05-.51-.19ZM346.11,237.32c-.14.05-.37,0-.37.14.14-.05.32,0,.37-.14ZM350.99,220.73c1.16.05,2.74.09,4.28-.09,1.21-.09,2.04-.56,2.93-1.02.51-1.02.98-2.23,1.07-3.58.14-1.49.09-3.86-1.72-4.37-.56-.14-1.21-.23-1.77-.28-.51-.09-.88,0-1.21,0-.23,0-.47-.14-.7-.19-1.95-.14-4.09-.09-5.99.33.6,1.25,1.21,2.93,1.25,4.55,0,.74.33,1.63.19,2.32.51.7.37,1.53.7,2.42.33.05.65,0,.98-.09Z"/><path class="b" d="M392.72,215.76c-.6,0-1.16.33-1.77.42-.65.51-1.63.88-2.6.88-.05-.09-.05-.28-.23-.23.05-.79-.88-1.49-.7-2-.23-.14-.14-.6-.51-.7,0-.09.14-.05.09-.19-.09-.05-.05.09-.14.09,0-.05,0-.23.09-.33-.23,0-.56-.23-.74-.51-.56-.09-.98-.42-1.91-.33-.09-.09-.05-.09,0-.19-2.56-.09-5.39,0-7.34,1.3-.79.7-1.26,1.91-1.53,2.93.37.6,1.25.56,1.72.88.05,0-.09.05-.09.05.74.28,1.63.23,2.23.88.42,0,.51.28.98.23.6.42,1.3.42,1.81.93.7.19,1.49.33,1.95.74,1.53.23,2.6.93,3.72,1.58,1.02.6,2.09,1.21,2.42,2.32.33.14.23.74.56.74,0,.19,0,.14.05.33,0,.05.09.05.14.05.14.84.65,1.67.93,2.6.09.56-.05,1.02.23,1.49-.19.28,0,.84.14,1.25-.09.56.05,1.44,0,1.86-.51.7-.7,1.81-1.12,2.46-.65.46-.93,1.21-1.44,1.72-.56-.09-.56.37-1.07.33-.28.33-1.02.7-1.53.51.28.14-.14.09-.09.28-1.07.33-2.05.74-3.16.46-1.16-.05-3.25.05-4.37-.33-.14,0-.05-.05-.05-.14-1.21-.05-3.02-.88-4.14-1.39-.09,0-.14-.14-.14-.23-1.63-.56-2.83-1.63-4.55-1.95-.09-.14-.05-.19-.09-.33-.05-.14-.09.14-.19.05-.09-.05-.19-.14-.23-.23-1.16-.09-1.35-1.39-2.23-2-.33-.23-.7-.33-.74-.56-.05-.28.74-1.35,1.02-1.49.09-.05.05-.09-.05-.14.28-.33.6-.51.7-.98.56-.42.74-1.21,1.35-1.58,0-.19.09-.23.09-.37.37-.23.7.09.98.19.65,1.02,1.95,1.44,2.79,2.23.79.19,1.81.65,2.79.7.74.6,1.86,1.35,3.21,1.58,1.11.19,3.72.05,4.37-.56.74-.7,1.07-1.67,1.07-2.88.05-.09.05-.42,0-.42-.14-.28-.19-.56-.51-.7-.14-.05-.28-.23-.42-.33-.28-.09-.6-.05-.88-.14,0-.05-.05-.14-.09-.19-.05,0-.14.05-.14.05-.79-.33-1.49-.74-2.28-.93-.05-.05-.14-.14-.14-.23-.14.09-.37-.14-.51,0-1.44-.7-3.35-1.44-5.3-1.67-.32-.23-.93-.42-1.35-.37-.19-.33-.74-.23-.98-.56h-.33c-.33-.33-.7-.6-1.16-.74-.28-.74-1.16-1.07-1.49-1.67-.05-.05.05-.19-.05-.23-.14-.19-.37-.28-.46-.46-.23-.33-.28-.79-.51-1.16-.14-.51-.37-.93-.46-1.39-.14-1.3.32-2.56.6-3.81.23-.7.32-1.39.46-2.04.28-.56.51-1.25.79-1.9.28-.14.46-.37.56-.65.74-.46,1.26-.84,2.09-1.25.6.05.93-.28,1.53-.23.56-.28,1.49-.37,2.32-.56.05,0,.05-.09.05-.14,1.77-.19,3.3-.6,5.07-.98.42.23.88.05,1.25.28.7,0,1.58.05,2.37.19.42.09.65.56,1.07.42.19.14.37.23.56.46.84.09,1.12.74,1.86.88,0,.19.28.14.14.28.88.42,1.3,1.44,2.14,2.09.6.88.98,2,1.58,2.93-.05.28.14.46,0,.6.05.51.74,1.77-.05,2.14Z"/><path class="b" d="M413.72,237.88c-.56-.74-.7-1.16-1.35-1.77-.37-.7-.74-1.39-1.21-2-.37-1.49-.93-2.97-1.63-4.32v-.33c-.09-.14-.28-.46-.23-.65-.33-.6-.56-1.07-.84-1.77-.37-.42-.28-.93-.6-1.3.05-.05.05-.14.09-.19-.05-.09-.19-.14-.23-.23-.23-1.07-.46-1.63-.79-2.37-1.16.84-1.91,2.09-3.11,2.93-.33,2.65-.09,5.39-.23,8.09-.09.98-.6,2.14-.6,3.3-.19-.05-.23.05-.33.14-.37-.19-.65.14-.98.28-.33.09-.79.05-1.21.14-.84.19-1.77.7-2.83.6-.79-.05-1.67.23-1.95-.28.05-.46.19-.79.19-1.21.05-.14-.09-.09-.14-.09,0-.98.09-2,.09-3.07,0-.88-.09-1.77-.05-2.65.05-.98.33-2.04.37-3.07,0-.37-.09-.79-.05-1.16.05-.65.23-1.21.19-1.67,0-.33-.05-.09.05-.33.05-.05-.09-.28-.09-.28.05-.6.23-1.21.14-1.95-.05-.51.05-1.86-.19-2.79.33-1.53.05-3.11,0-4.32.14-.23.09-.79,0-1.12.09-.19.14-.65.14-1.07,0-.33,0-.7-.14-.84.28-.28.09-1.25,0-1.63.14-.65-.05-1.9-.05-2.97,0-.46.09-.93-.19-1.21.14-.14.05-.33.23-.51.84.14,1.58.14,2.51.05.46-.05,1.02.05,1.58,0,.46-.09,1.16-.42,1.67-.05.33-.23,1.12-.33,1.49.09-.23.7.09,1.3.19,1.9.09.84,0,1.86,0,2.79-.05.7,0,1.49,0,2.18,0,.09.09.23.09.33-.05.6-.37,1.35-.05,2-.28.56.19,1.3-.09,1.72.23.65,0,1.07.14,1.63.6-.14,1.12-1.25,1.67-1.44,1.44-1.91,2.6-3.07,3.95-4.88.56-.56,1.16-1.3,1.39-2,.84-1.25,2.09-2.32,2.65-3.76.23-.14.46-.46.42-.7.14-.28.6-.19.88-.33.88.6,2.28-.05,2.88.51.98.09,1.63.46,2.46.65,0,.14,0,.28.19.19,0,.23.05.37.09.56-.14.14-.19.33-.46.33.14.09.05.05.05.28-.19-.05-.05.19-.28.09-.09.33-.37.51-.6.7-.98,1.58-2.37,2.83-3.3,4.46-.65.46-.88,1.3-1.63,1.67-.74,1.21-1.72,2.23-2.65,3.21,1.12.42,1.26,1.58,1.67,2.79.14.51.42.93.6,1.39.33.79.84,1.39,1.16,2.23.23,0,.09.42.42.42-.09.23.14.42.33.65.46,1.21,1.35,2.51,1.86,3.9,0,.09.09.09.23.09-.19.14.09.51.23.65.32,1.07.79,1.91,1.16,2.88.23.23.33.56.51.74.84.14.74.79,1.12,1.35.05.7.46,1.58.6,2.04-.05.14-.14.23-.23.28-.19,0-.23-.09-.33-.09-1.72.05-3.58.28-5.07.46-.23.19-.6.23-.98.33-.33-.23-.56-.56-1.02-.65ZM402.61,206.1c-.09,0-.09.09-.19.09-.05.14.09.09.19.09v-.19Z"/><path class="b" d="M443.09,238.11c-.14.09-.23-.05-.37,0,0-.09,0-.23-.14-.23.05-.33.14-.7-.14-.65-.14-.88-.56-1.53-.65-2.56-.28-.33-.23-.74-.32-1.16-.09-.37,0-.7-.28-.88-.14-.88-.37-2-.74-2.79-.42.05-.7-.14-.88.05-2.83.19-5.25-.28-8.09.14-.42,1.02-.88,2.28-1.53,3.21l.19.19c-.51,1.25-.74,2.14-.88,3.58h-.23s.14.09.09.23c-.23,0-.14.05-.09.14-.05,0-.14-.05-.23-.05.05.14.23.05.28.19,0,.19-.14.28-.28.37-.93-.05-1.86.09-2.93.14.09-.23-.05-.14-.14-.28-.09.05-.05.23-.14.33-1.12.05-2.28,0-3.3-.19-.14.05-.09-.05-.09-.14-.23,0,.05.19-.19.14-.23-.14.14-.23-.14-.28.05-.28.33-.6.14-.79.28-.14.05-.51.37-.56-.14-.37.19-.7.23-1.07h.19c.84-2.51,2.09-5.39,2.97-8.32h.19c.05-.28,0-.33.05-.56h.14c.14-.6.47-1.53.56-2.28.32,0,.37-.84.37-1.16.19-.14.33-.42.23-.74,1.02-3.16,1.72-6.51,2.7-9.43,0-.14-.09-.14-.09-.28.33-.19.19-.88.47-1.07.09-.93.6-2,.74-3.02.19,0,.19-.23.42-.23.05-.6.42-.93.6-1.67h.19c0-.23.14-.33.09-.56,1.44.09,3.44-.14,4.93.19,0,.14-.23-.05-.19.14.05.09.23-.09.23-.19.7.23,1.07-.14,1.67.09.19.28,0,.79.51.93.23.51.23.88.6,1.21.19.7.42,1.72.7,2.6.09.33.19.74.51.88-.14.19,0,.46.09.65.28.7.84,1.44,1.07,2.09.09,0,.09.05.09.09,0,.09.05,0,.14,0,.23,1.49,1.07,2.51,1.39,3.81.37.56.42,1.44.93,1.86.28.65.6,1.67,1.02,2.37.23.84.51,1.86.79,2.56-.05.19.05.6.23.74-.14.46.19.84.23,1.25.05.14-.05.37,0,.56.09.28.28.56.33.84.19,1.21.74,2.83,1.16,4.09.05.09.19.19.19.33.05.09,0,.23,0,.28.05.09.14.09.19.14.14.37.14.74.28,1.07.09.14.28.33.28.6.05.14.23.14.32.23,0,.7.42,1.16.74,1.67-.05.05-.09.09-.14.09.33.23.65.51.65,1.12-.23.23-.7.09-.79-.14-.37.14-1.35.05-1.86,0-.32.28-.88.05-1.44.05-.74,0-2.56.14-3.16.19-.42.05-.74.33-1.02-.14ZM432.82,225.43c.46.05,1.39-.28,1.9-.28.51.14,1.3-.14,2-.14.09-.05,0-.23.19-.19.88-.05,1.63-.23,2.6-.46-.56-1.53-1.07-3.67-1.86-4.55-.09-.37,0-1.02-.09-1.39-.42-1.21-.84-2.37-1.25-3.48-.09.37-.37.79-.33,1.12l-.56.42c-.65,1.86-.74,3.58-1.67,5.11-.37,1.58-1.35,2.51-1.77,4.23.37-.05.7-.14.84-.37Z"/><path class="c" d="M226.88,279.94l-3.66.69v8.4l4.27,3.44-1.68,4.81h-4.5l-5.27-4.5v-16.72l10.84-1.37v5.27ZM216.81,255.28h7.25v6.79l-2.67,8.09h-4.58v-14.89ZM237.57,257.88v30.61l3.44,2.29v6.49h-6.72l-4.35-4.35v-29.85l-2.82-1.45v-6.64l10.46,2.9Z"/><path class="c" d="M257.5,290.4v7.1l-11.15-2.6-1.91-18.63,1.91-18.63,11.15-2.6v7.1l-4.73,1.45v25.35l4.73,1.45ZM260.55,242.99h7.63v54.28h-7.63v-54.28Z"/><path class="c" d="M279.48,255.28l8.93,41.99h-7.79l-7.63-34.81v-7.18h6.49ZM296.43,262.46l-6.18,26.87h-.46l-3.21-15.42,3.97-18.63h5.88v7.18Z"/><path class="c" d="M308.8,289.1l2.6,1.37v7.02l-9.24-2.75-1.98-18.4,2.06-17.41,6.57-4.35v34.51ZM321.17,257.65l2.06,12.21v9.16h-11.37v-4.81l3.82-.61v-9.77l-3.82-1.68v-7.1l9.31,2.6ZM322.16,297.27h-7.71v-6.57l2.67-7.25h5.04v13.82Z"/><path class="c" d="M336.59,255.28v41.99h-7.63v-41.99h7.63ZM351.24,297.27h-7.63v-33.44l-3.97-1.3v-7.56l11.6,3.21v39.09Z"/><path class="c" d="M365.29,296.89l-4.27-.69-3.44-4.66v-39.62l4.43-8.55h3.28v53.51ZM374.22,255.28v9.77h-5.88v-9.77h5.88ZM368.34,297.12v-10.08l5.8.92v9.62l-5.8-.46Z"/><path class="c" d="M379.26,255.28h7.63v33.44l3.97,1.3v7.56l-11.6-3.21v-39.09ZM393.92,297.27v-41.99h7.63v41.99h-7.63Z"/><path class="c" d="M407.58,255.28h3.05l4.58,13.21v28.78h-7.63v-41.99ZM414.99,258.41l2.9-3.44h4.12v12.06l-4.05.15-2.98-8.78Z"/><path class="c" d="M434.84,289.1l2.6,1.37v7.02l-9.24-2.75-1.98-18.4,2.06-17.41,6.57-4.35v34.51ZM447.21,257.65l2.06,12.21v9.16h-11.37v-4.81l3.82-.61v-9.77l-3.82-1.68v-7.1l9.31,2.6ZM448.2,297.27h-7.71v-6.57l2.67-7.25h5.04v13.82Z"/><path class="c" d="M91.45,239.15l14.64,12.99,5.24-5.73c1.24-1.36,3.32-1.54,4.78-.41l14.86,11.48c4.99-3.67,8.89-8.74,11.11-14.64h-8.41v-.03c-1.67,0-3.02-1.35-3.02-3.02,0-1.14.64-2.12,1.57-2.63h-8.06v-.03c-1.67,0-3.02-1.35-3.02-3.02s1.35-3.02,3.02-3.02v-.03h4.01c-.34-.49-.53-1.08-.53-1.71,0-1.67,1.35-3.02,3.02-3.02v-.03h13.08c-2.48-15.37-15.79-27.11-31.86-27.11-10.12,0-19.15,4.66-25.07,11.96h9.82v.03c1.67,0,3.02,1.35,3.02,3.02,0,.83-.34,1.59-.88,2.13h1.81v.03c1.67,0,3.02,1.35,3.02,3.02s-1.35,3.02-3.02,3.02v.03h-19.69c-.84,2.87-1.29,5.9-1.29,9.04,0,3.9.69,7.65,1.96,11.11l4.97-3.66c1.49-1.1,3.55-1,4.93.23Z"/><path class="b" d="M167.37,256.44l-2.21,1.18c-.98.53-2.19.36-2.99-.42l-6.51-6.32c-.97-.94-2.5-.97-3.5-.06l-15.24,13.8c-.92.83-2.3.89-3.28.13l-1.51-1.17-16.73-12.93c-1.05-.81-2.55-.68-3.45.3l-4.15,4.54c-.94,1.03-2.54,1.11-3.59.19l-13.58-12.05c-.9-.8-2.24-.86-3.22-.15l-9.54,7.02-28.18,20.74c-2.36,1.74-.42,5.44,2.35,4.47,7.29-2.54,15.04-4.47,24.43-3.95,4.05.23,7.59.84,11.74,2.63,10.07,4.34,16.67,7,23.7,10.2,7.65,3.48,20.39,4.02,28.31,1.2,9.01-3.22,13.4-5.06,22.15-8.32,5.61-2.09,15.67-3.6,21.61-2.59.06.01.12.02.18.04l13.04,3.01c2.87.66,4.4-3.25,1.85-4.71l-29.21-16.73c-.77-.44-1.7-.45-2.48-.04Z"/><path class="d" d="M147.95,289.74s-18.66,10.24-38.26,0c-19.61-10.24-27.1-10.73-27.1-10.73,0,0-16.35-4.24-30.71,1.5"/><path class="d" d="M134.83,299.85c2.65-.42-13.16,4.53-29.53-4.75-14.29-8.1-23.65-8.48-23.65-8.48"/></svg>