<?xml version="1.0" encoding="utf-8"?>
<!-- Generator: Adobe Illustrator 28.2.0, SVG Export Plug-In . SVG Version: 6.00 Build 0)  -->
<svg version="1.0" id="Layer_1" xmlns="http://www.w3.org/2000/svg" xmlns:xlink="http://www.w3.org/1999/xlink" x="0px" y="0px"
	 viewBox="0 0 67 67" style="enable-background:new 0 0 67 67;" xml:space="preserve">
<style type="text/css">
	.st0{fill:#414042;}
	.st1{fill:#D3B756;}
	.st2{fill:#DFC860;}
	.st3{fill:#EEF0E6;}
</style>
<g>
	<path class="st0" d="M6.12,50.52c0.57,0,1.04-0.2,1.41-0.59c0.37-0.4,0.55-0.9,0.55-1.51c0-0.44-0.12-0.86-0.35-1.25
		c-0.23-0.39-0.56-0.77-1-1.15c-0.43-0.38-0.97-0.76-1.62-1.15c-0.61-0.39-1.14-0.8-1.61-1.23c-0.46-0.43-0.82-0.91-1.08-1.43
		c-0.26-0.52-0.39-1.07-0.39-1.66c0-1.05,0.39-1.91,1.16-2.57c0.77-0.66,1.8-1,3.07-1c0.39,0,0.77,0.02,1.15,0.06
		c0.38,0.04,0.78,0.1,1.2,0.19l0.89,0.17l0.53,3.4l-0.17,0.06c-0.52-1.2-1.08-2.08-1.69-2.64c-0.61-0.56-1.25-0.84-1.94-0.84
		c-0.54,0-0.96,0.17-1.29,0.51c-0.32,0.34-0.48,0.78-0.48,1.31c0,0.61,0.22,1.18,0.66,1.72c0.44,0.54,1.09,1.06,1.94,1.58
		c1.24,0.76,2.12,1.49,2.64,2.21c0.53,0.72,0.79,1.5,0.79,2.35c0,1.14-0.39,2.08-1.18,2.81c-0.78,0.73-1.79,1.09-3,1.09
		c-0.35,0-0.75-0.03-1.19-0.1c-0.44-0.06-0.9-0.15-1.38-0.26l-1.44-0.36c-0.15-0.99-0.3-1.99-0.45-2.98
		c0.07-0.02,0.14-0.04,0.21-0.06c0.33,0.7,0.87,1.53,1.73,2.25C4.07,49.67,5.12,50.52,6.12,50.52z"/>
	<path class="st1" d="M10.82,50.87c0.36-0.08,0.67-0.26,0.9-0.54c0.24-0.28,0.41-0.67,0.52-1.18c0.11-0.51,0.17-1.14,0.17-1.9v-7.49
		c0-0.98-0.05-1.78-0.14-2.38c-0.09-0.6-0.26-1.06-0.5-1.37c-0.24-0.31-0.56-0.53-0.95-0.65l0.07-0.1h4.83l3.45,10.49l2.57-7.92
		c0.17-0.55,0.3-0.97,0.39-1.26c0.09-0.29,0.15-0.51,0.18-0.69c0.03-0.17,0.05-0.38,0.05-0.62h5.16l0.07,0.1
		c-0.41,0.13-0.73,0.34-0.96,0.65c-0.23,0.31-0.4,0.77-0.5,1.37c-0.1,0.6-0.15,1.39-0.15,2.38v6.7c0,0.98,0.05,1.78,0.15,2.38
		c0.1,0.6,0.27,1.06,0.5,1.37c0.23,0.31,0.55,0.53,0.96,0.65l-0.07,0.09h-6.56l-0.07-0.09c0.4-0.13,0.71-0.35,0.95-0.65
		c0.24-0.31,0.4-0.76,0.5-1.37c0.1-0.6,0.14-1.39,0.14-2.38v-9.46l-4.68,14.31h-0.14l-4.76-14.15v10.08c0,0.76,0.06,1.39,0.17,1.9
		c0.11,0.51,0.29,0.9,0.54,1.18c0.25,0.28,0.54,0.46,0.89,0.54l-0.07,0.09h-3.52L10.82,50.87z"/>
	<path class="st0" d="M32.88,37.31v9.73c0,1.26,0.11,2.17,0.32,2.74c0.22,0.57,0.59,0.93,1.11,1.08l-0.08,0.11H28.7l-0.08-0.11
		c0.52-0.15,0.89-0.51,1.11-1.08c0.22-0.57,0.32-1.48,0.32-2.74v-4.75c0-1.26-0.12-2.17-0.37-2.74c-0.24-0.57-0.64-0.94-1.18-1.11
		l0.08-0.11l4.22-1.1L32.88,37.31z M31.39,35.82c-0.36,0-0.68-0.09-0.97-0.27c-0.29-0.18-0.52-0.41-0.7-0.69
		c-0.18-0.28-0.27-0.59-0.27-0.93c0-0.34,0.09-0.65,0.27-0.93c0.18-0.28,0.41-0.51,0.69-0.67c0.28-0.17,0.6-0.25,0.96-0.25
		c0.36,0,0.68,0.08,0.97,0.25c0.29,0.17,0.52,0.39,0.69,0.67c0.17,0.28,0.25,0.59,0.25,0.93c0,0.34-0.09,0.65-0.27,0.93
		c-0.18,0.28-0.41,0.51-0.69,0.69C32.04,35.73,31.73,35.82,31.39,35.82z"/>
	<path class="st1" d="M40.52,50.96H35.5l-0.07-0.09c0.4-0.13,0.71-0.35,0.95-0.65c0.24-0.31,0.4-0.76,0.5-1.37
		c0.1-0.6,0.14-1.39,0.14-2.38v-6.7c0-0.98-0.05-1.78-0.14-2.38c-0.1-0.6-0.26-1.06-0.5-1.37c-0.24-0.31-0.55-0.53-0.95-0.65
		l0.07-0.1h6.56l0.07,0.1c-0.4,0.13-0.71,0.34-0.95,0.65c-0.24,0.31-0.41,0.77-0.51,1.37c-0.1,0.6-0.15,1.39-0.15,2.38V50.96z
		 M39.4,50.96v-0.38h1.95c0.7,0,1.38-0.18,2.05-0.53c0.67-0.36,1.28-0.91,1.83-1.65c0.55-0.74,1.01-1.7,1.38-2.85l0.14,0.07
		l-1.09,5.35H39.4z"/>
	<path class="st1" d="M48.79,52.29v-9.82c0-1.29-0.13-2.23-0.38-2.82c-0.25-0.59-0.66-0.97-1.22-1.14l0.09-0.12l4.34-1.13l0.09,0.09
		v14.51c0,1.1-0.25,2.07-0.74,2.9c-0.49,0.83-1.16,1.48-2.01,1.95c-0.85,0.47-1.81,0.74-2.9,0.8l-0.06-0.17
		c0.89-0.31,1.57-0.91,2.06-1.8C48.55,54.64,48.79,53.56,48.79,52.29z M50.15,35.81c-0.35,0-0.67-0.09-0.97-0.28
		c-0.3-0.18-0.54-0.42-0.72-0.71c-0.18-0.29-0.28-0.61-0.28-0.96s0.09-0.67,0.28-0.96c0.18-0.29,0.42-0.52,0.72-0.7
		c0.3-0.17,0.62-0.26,0.97-0.26c0.37,0,0.69,0.09,0.98,0.26c0.29,0.17,0.53,0.41,0.71,0.7c0.18,0.29,0.27,0.61,0.27,0.96
		s-0.09,0.67-0.27,0.96c-0.18,0.29-0.42,0.53-0.71,0.71C50.84,35.72,50.51,35.81,50.15,35.81z"/>
	<path class="st0" d="M59.09,50.92c-1.05,0-1.99-0.3-2.83-0.91c-0.84-0.61-1.49-1.44-1.97-2.5c-0.48-1.06-0.72-2.27-0.72-3.63
		c0-1.36,0.24-2.56,0.73-3.59c0.49-1.03,1.14-1.84,1.97-2.43c0.83-0.59,1.76-0.88,2.79-0.88c0.94,0,1.77,0.24,2.48,0.73
		c0.72,0.49,1.28,1.16,1.7,2.01c0.41,0.86,0.62,1.85,0.62,2.99c0,0.17,0,0.32-0.01,0.47c-0.01,0.15-0.03,0.3-0.07,0.47h-8.19v-0.39
		h5.52c0-0.22,0-0.44,0.01-0.66s0.01-0.42,0.01-0.61c0-1.43-0.19-2.56-0.58-3.38c-0.39-0.82-0.91-1.23-1.57-1.23
		c-0.74,0-1.32,0.47-1.75,1.41s-0.65,2.2-0.65,3.78c0,1.49,0.19,2.75,0.57,3.78c0.38,1.03,0.87,1.81,1.49,2.33
		c0.62,0.52,1.26,0.79,1.94,0.79c0.55,0,1.07-0.16,1.54-0.48c0.48-0.32,0.87-0.79,1.19-1.42l0.17,0.06
		c-0.2,0.68-0.52,1.27-0.95,1.77c-0.43,0.5-0.94,0.87-1.52,1.13C60.42,50.79,59.78,50.92,59.09,50.92z"/>
	<g>
		<path class="st0" d="M13.57,19.54c-0.19,0.41-0.26,0.53-0.37,0.66c-0.24,0.29-0.31,0.59-0.56,0.96c-0.19,0.28-0.37,0.59-0.62,0.93
			c-0.25,0.34-0.51,0.68-0.81,0.97l-0.34,0.32c-0.28,0.26-0.53,0.49-0.9,0.78l-0.44,0.37c-0.15,0.13-0.34,0.24-0.47,0.34
			c-0.26,0.22-0.56,0.37-0.81,0.56c-0.25,0.19-0.57,0.29-0.96,0.57s-0.75,0.4-1.1,0.63c-0.22,0.15-0.75,0.44-0.75,0.44
			c-0.47,0.26-0.76,0.49-1.1,0.66c-0.25,0.13-0.65,0.4-0.91,0.41H3.29c-0.53,0-0.75-0.22-0.78-0.44C2.5,27.65,2.5,27.61,2.5,27.57
			c0-0.16,0.09-0.31,0.34-0.51c0.1-0.09,0.29-0.19,0.47-0.37S3.79,26.26,4,26.02l0.54-0.6c0.16-0.16,0.35-0.34,0.5-0.51
			c0.24-0.28,0.41-0.4,0.59-0.65c0.19-0.26,0.34-0.41,0.44-0.53l0.31-0.37c0.16-0.19,0.34-0.37,0.51-0.66
			c0.12-0.18,0.34-0.46,0.34-0.46c0.12-0.19,0.29-0.41,0.38-0.57c0,0,0.24-0.37,0.38-0.66c0.09-0.19,0.22-0.46,0.32-0.57
			c0.12-0.15,0.25-0.54,0.37-0.78C8.81,19.41,8.91,19.1,8.95,19c0.04-0.1,0.09-0.24,0.09-0.29c0-0.03-0.03-0.06-0.09-0.06
			c-0.03,0-0.07,0-0.15,0.03c-0.35,0.1-0.43,0.09-0.91,0.37c-0.21,0.13-0.46,0.22-0.72,0.4C6.82,19.67,6.59,19.73,6.31,20
			c-0.28,0.26-0.48,0.25-0.88,0.56C5.23,20.69,4.81,21,4.65,21.2c-0.16,0.21-0.6,0.5-0.81,0.73c-0.16,0.15-0.53,0.5-0.72,0.76
			c-0.26,0.37-0.48,0.47-0.71,0.78c-0.16,0.22-0.46,0.56-0.71,0.85c-0.21,0.22-0.34,0.5-0.34,0.65v0.09c0,0.51,0.26,0.81,0.29,1.06
			c0,0.03,0,0.09-0.01,0.1c-0.07,0.22-0.38,0.28-0.43,0.29c-0.04,0.01-0.24,0.04-0.28,0.04c-0.22,0-0.35-0.1-0.37-0.29
			c0-0.07,0.01-0.16,0.03-0.24c0.04-0.19,0.07-0.44,0.07-0.44c0.03-0.28,0.01-0.34,0.21-0.76c0.22-0.5,0.34-0.57,0.68-1.06
			l0.24-0.32c0.18-0.26,0.46-0.53,0.62-0.73c0.24-0.28,0.84-0.9,0.84-0.9c0.16-0.19,0.37-0.38,0.56-0.56c0.21-0.21,0.79-0.65,1-0.81
			c0.24-0.19,0.12-0.09,1.32-0.93c0,0,0.71-0.47,0.98-0.63c0.28-0.18,0.47-0.31,0.84-0.53c0.28-0.18,0.6-0.31,0.9-0.44
			c0.26-0.12,0.53-0.21,0.76-0.24c0.62-0.07,0.59-0.09,0.76-0.09c0.07,0,0.13,0.03,0.19,0.07c0.13,0.12,0.24,0.1,0.24,0.26
			c0,0.09-0.04,0.18-0.15,0.32c-0.26,0.46-0.29,0.4-0.54,0.9c-0.25,0.5-0.44,0.62-0.68,1.01c-0.16,0.28-0.34,0.51-0.5,0.79
			c-0.15,0.26-0.26,0.38-0.38,0.65c-0.1,0.24-0.25,0.29-0.32,0.51c-0.1,0.31-0.26,0.41-0.43,0.68c-0.12,0.21-0.28,0.35-0.48,0.71
			c-0.21,0.35-0.29,0.37-0.41,0.57c-0.12,0.21-0.31,0.38-0.46,0.62c-0.19,0.31-0.28,0.31-0.4,0.5c-0.12,0.19-0.28,0.26-0.28,0.5
			c0,0.12,0.13,0.13,0.18,0.13c0.1,0,0.71-0.13,0.97-0.29c0.26-0.16,0.71-0.29,0.97-0.47c0.25-0.16,0.47-0.31,0.69-0.43
			c0.26-0.15,0.35-0.26,0.68-0.51c0.12-0.09,0.54-0.41,0.66-0.51c0.41-0.35,0.34-0.22,0.73-0.73l0.44-0.54
			c0.16-0.26,0.29-0.37,0.43-0.63c0.13-0.25,0.25-0.46,0.4-0.78c0.16-0.35,0.03-0.24,0.25-0.68c0.22-0.44,0.1-0.41,0.32-0.9
			c0.1-0.22,0.25-0.79,0.41-1.12c0.15-0.29,0.25-0.53,0.44-0.62c0.25-0.1,0.22-0.15,0.43-0.15c0.13,0,0.31,0.06,0.35,0.22
			c0.07,0.24,0.12,0.34,0.12,0.5c0,0.09-0.15,0.46-0.24,0.6C13.76,19.2,13.76,19.13,13.57,19.54z"/>
		<path class="st0" d="M17.24,27.95c-0.37,0.07-0.6,0.09-0.69,0.09c-0.07,0-0.01-0.01-0.35-0.01c-0.54,0-0.93-0.24-0.93-0.76
			c0-0.15,0.03-0.29,0.13-0.5c0.1-0.19,0.21-0.28,0.21-0.41c0-0.01-0.01-0.04-0.04-0.04c-0.04,0-0.22,0.04-0.9,0.34
			c-0.25,0.1-0.37,0.19-0.6,0.29c-0.4,0.19-0.71,0.37-1.04,0.44c-0.34,0.07,0,0-0.72,0.19c-0.21,0.06-0.49,0.07-0.66,0.07
			c-0.22,0-0.25-0.03-0.43-0.03c-0.43,0-0.68-0.35-0.68-0.72c0-0.09,0.03-0.4,0.07-0.49c0.13-0.25,0.28-0.47,0.56-0.65
			c0.28-0.18,0.35-0.43,0.68-0.65c0.35-0.25,0.38-0.43,0.73-0.66c0.34-0.24,0.41-0.32,0.68-0.32c0.25,0.01,0.72,0.25,0.76,0.49v0.06
			c0,0.19-0.16,0.25-0.43,0.44c-0.24,0.18-0.35,0.26-0.91,0.59c-0.37,0.21-0.69,0.56-0.69,0.9c0,0.25,0.31,0.28,0.54,0.28
			c0.48,0,0.63-0.1,0.88-0.18c0.25-0.07,0.46-0.16,0.81-0.32c0.24-0.1,0.46-0.22,0.68-0.32c0.21-0.1,0.48-0.28,0.63-0.34
			c0.25-0.1,0.5-0.22,0.79-0.4c0.47-0.28,0.49-0.35,0.63-0.49c0.28-0.24,0.43-0.37,0.82-0.73c0.38-0.35,0.35-0.31,0.72-0.68
			c0.32-0.32,0.54-0.47,0.98-0.91c0.44-0.44,0.51-0.47,0.98-0.88c0.47-0.41,0.53-0.47,1.06-0.88c0.53-0.41,0.57-0.44,1.03-0.76
			c0.43-0.31,0.6-0.44,1.06-0.68c0.44-0.22,1.03-0.62,1.53-0.76c0.5-0.15,0.87-0.34,1.18-0.34c0.15,0,0.15-0.01,0.26-0.01
			c0.18,0,0.29,0.03,0.4,0.21c0.03,0.06,0.04,0.1,0.04,0.16c0,0.18-0.1,0.35-0.1,0.44c0,0.03-0.16,0.29-0.24,0.35
			c-0.19,0.19-0.29,0.24-0.6,0.53c-0.31,0.29-0.72,0.51-1.15,0.87c-0.46,0.37-0.75,0.62-1.31,0.98c-0.4,0.26-0.82,0.6-1.31,0.9
			l-0.85,0.51c-0.24,0.16-0.88,0.57-1.23,0.75c-0.37,0.22-0.6,0.37-0.93,0.51c-0.31,0.16-0.59,0.31-0.93,0.51
			c-0.34,0.21-0.43,0.35-0.69,0.56c-0.26,0.21-0.31,0.35-0.63,0.71c-0.16,0.18-0.25,0.44-0.25,0.68c0,0.28,0.29,0.4,0.41,0.4
			l0.4-0.04c0.21,0,0.44-0.01,0.93-0.15c0.29-0.07,0.73-0.21,0.73-0.21c0.31-0.09,0.56-0.19,0.78-0.26
			c0.35-0.12,0.35-0.15,0.56-0.22c0.28-0.1,0.5-0.24,0.5-0.24c0.07-0.01,0.48-0.26,0.68-0.35c0.19-0.09,0.19-0.15,0.31-0.15
			c0.09,0.01,0.18,0.04,0.18,0.18c-0.01,0.06-0.15,0.18-0.32,0.26c0,0-0.22,0.13-0.37,0.22c-0.29,0.15-0.24,0.16-0.57,0.31
			c-0.21,0.09-0.24,0.15-0.5,0.26c-0.26,0.12-0.31,0.15-0.59,0.26c-0.09,0.03-0.5,0.16-0.54,0.19c-0.21,0.12-0.21,0.03-0.62,0.24
			c-0.09,0.04-0.91,0.26-1.06,0.29L17.24,27.95z M20.18,19.25c-0.25,0.4-0.43,0.53-0.56,0.53c-0.19,0-0.29-0.16-0.29-0.46
			c0-0.19,0-0.37,0.07-0.57c0.15-0.41,0.35-0.6,0.56-0.72c0.16-0.09,0.19-0.1,0.32-0.1c0.13,0,0.37,0.13,0.37,0.56
			C20.65,18.89,20.45,18.84,20.18,19.25z M25.05,19.75c0-0.12,0-0.18-0.16-0.18c-0.26,0-0.57,0.12-1.21,0.47
			c-0.63,0.35-0.73,0.47-1.38,0.93c-0.65,0.46-0.75,0.65-1.25,1.01c-0.5,0.37-0.76,0.69-1.03,0.94c-0.21,0.18-0.59,0.65-0.59,0.76
			c0,0.01,0.01,0.03,0.04,0.03c0.1,0,0.81-0.32,1.09-0.51c0.28-0.19,0.82-0.49,1-0.6c0.28-0.18,0.57-0.38,0.79-0.5
			c0.25-0.13,0.51-0.38,0.82-0.57s0.28-0.28,0.5-0.4c0.22-0.13,0.22-0.15,0.54-0.43c0.35-0.29,0.35-0.37,0.57-0.54
			C24.87,20.1,25.05,19.83,25.05,19.75z"/>
		<path class="st0" d="M24.63,27.37c-0.22,0.06-0.46,0.19-0.76,0.22c-0.44,0.07-0.54,0.16-0.82,0.16c-0.25,0-0.78,0-0.97-0.19
			c-0.21-0.16-0.43-0.21-0.47-0.47c-0.04-0.26-0.04-0.28-0.04-0.57c0-0.34,0.25-0.71,0.44-0.85c0.21-0.16,0.46-0.51,0.65-0.66
			c0.19-0.15,0.68-0.76,0.88-0.93c0.21-0.16,0.37-0.38,0.47-0.47c0.4-0.37,0.51-0.56,0.76-0.75c0.25-0.19,0.43-0.46,0.71-0.68
			c0.25-0.21,0.29-0.34,0.69-0.68c0.4-0.34,0.44-0.53,0.85-0.87c0.41-0.34,0.46-0.57,0.9-0.9c0.41-0.31,0.68-0.68,1.06-0.87
			c0.38-0.19,0.65-0.26,0.85-0.29c0.1,0,0.28,0,0.29,0.25c0,0.21-0.06,0.29-0.16,0.46c-0.1,0.16-0.24,0.18-0.37,0.41
			c-0.13,0.24-0.38,0.29-0.53,0.5c-0.18,0.19-0.21,0.26-0.46,0.46c-0.25,0.21-0.47,0.31-0.59,0.49c-0.15,0.19-0.34,0.32-0.5,0.47
			c-0.15,0.13-0.37,0.28-0.56,0.47s-0.47,0.44-0.66,0.6c-0.21,0.19-0.53,0.41-0.71,0.62c-0.18,0.18-0.59,0.44-0.76,0.65
			c-0.22,0.21-0.35,0.4-0.65,0.62c-0.18,0.13-0.31,0.35-0.56,0.57c-0.25,0.22-0.35,0.32-0.46,0.54c-0.1,0.22-0.18,0.31-0.18,0.48
			v0.1c0,0.18,0.06,0.49,0.43,0.6c0.15,0.06,0.29,0.06,0.41,0.06c0.25,0,0.26-0.01,0.5-0.04c0.24-0.03,0.29-0.07,0.47-0.09
			c0.06,0,0.25-0.07,0.32-0.09c0.15-0.01,0.31-0.09,0.41-0.12l0.28-0.09l0.41-0.16c0.04-0.03,0.19-0.07,0.35-0.16
			c0.15-0.07,0.32-0.18,0.4-0.21c0.19-0.09,0.21-0.09,0.37-0.19c0.22-0.1,0.21-0.13,0.32-0.15c0.09,0.01,0.18,0.06,0.18,0.18
			c0,0.07-0.15,0.15-0.31,0.25c0,0-0.21,0.12-0.37,0.22c-0.18,0.1-0.34,0.18-0.59,0.31c-0.16,0.09-0.26,0.12-0.44,0.21
			c-0.18,0.09-0.24,0.09-0.38,0.16s-0.19,0.07-0.31,0.13c-0.12,0.06-0.24,0.07-0.35,0.13C24.97,27.29,24.85,27.32,24.63,27.37z"/>
		<path class="st0" d="M33.72,27.24c-0.18,0.07-0.47,0.19-0.6,0.22c-0.34,0.07-0.5,0.18-0.82,0.18c-0.07,0-0.28-0.01-0.32-0.01
			c-0.13-0.01-0.31-0.03-0.47-0.13c-0.16-0.1-0.13-0.1-0.28-0.22c-0.29-0.25-0.16-0.43-0.47-0.43c-0.19,0-0.28,0.06-0.51,0.19
			c-0.13,0.07-0.38,0.16-0.53,0.25c-0.12,0.07-0.28,0.09-0.44,0.16c-0.21,0.1-0.54,0.22-0.87,0.29c-0.25,0.06-0.46,0.09-0.63,0.09
			c-0.44,0-0.85-0.06-0.94-0.38c-0.04-0.16-0.09-0.24-0.09-0.32s0-0.34,0.06-0.49c0.07-0.32,0.09-0.24,0.26-0.47
			c0.22-0.34,0.68-0.65,0.96-0.84c0.25-0.16,0.31-0.24,0.57-0.38c0.51-0.29,0.47-0.24,1.09-0.65c0.37-0.25,0.44-0.22,0.68-0.38
			c0.24-0.16,0.44-0.25,0.63-0.34c0.35-0.16,0.6-0.29,0.75-0.29c0.07,0,0.15,0,0.28,0.04c0.09,0.03,0.19,0.07,0.19,0.18
			c0,0.37-0.38,0.37-0.62,0.5c-0.18,0.1-0.29,0.19-0.44,0.26c-0.13,0.06-0.19,0.16-0.44,0.26c-0.25,0.1-0.28,0.21-0.41,0.29
			c-0.34,0.24-0.35,0.31-0.68,0.47c-0.07,0.04-0.22,0.19-0.4,0.28c-0.12,0.06-0.21,0.16-0.41,0.32c-0.21,0.16-0.25,0.21-0.38,0.37
			c-0.13,0.16-0.29,0.31-0.35,0.43c-0.01,0.04-0.03,0.07-0.03,0.12c0,0.13,0.1,0.24,0.19,0.24c0,0,0.09,0.01,0.21,0.01
			c0.04,0,0.16-0.03,0.32-0.03h0.13c0.1,0,0.19,0,0.28-0.04c0.12-0.06,0.18-0.07,0.35-0.12c0.12-0.03,0.34-0.09,0.44-0.13
			c0.16-0.07,0.38-0.16,0.38-0.16c0.16-0.07,0.28-0.13,0.4-0.25c0.09-0.09,0.16-0.18,0.22-0.47c0.03-0.18,0.18-0.32,0.22-0.41
			c0.07-0.12,0.21-0.37,0.46-0.62c0.25-0.25,0.26-0.28,0.49-0.49c0.22-0.21,0.38-0.24,0.53-0.24c0.37,0,0.43,0.13,0.43,0.28
			c0,0.1,0.03,0.07,0.03,0.18c0,0.15-0.12,0.25-0.26,0.41c-0.22,0.22-0.35,0.25-0.54,0.62c0,0-0.18,0.37-0.18,0.59
			c0,0.22,0.04,0.16,0.1,0.38c0.04,0.19,0.22,0.31,0.44,0.31c0.1,0,0.31-0.01,0.34-0.01c0.16,0,0.38-0.04,0.51-0.09
			c0.19-0.06,0.29-0.12,0.5-0.18c0.22-0.06,0.43-0.15,0.63-0.24c0,0,0.47-0.22,0.62-0.28c0.19-0.07,0.37-0.21,0.56-0.29
			c0.19-0.09,0.19-0.15,0.31-0.15c0.09,0.01,0.18,0.04,0.18,0.18c-0.01,0.06-0.13,0.16-0.31,0.25c0,0-0.22,0.13-0.37,0.22
			c-0.29,0.15-0.16,0.12-0.59,0.31c-0.18,0.09-0.24,0.13-0.5,0.25C34.19,26.99,33.92,27.15,33.72,27.24z"/>
	</g>
	<path class="st2" d="M63.73,13.21c-0.08,0.08-0.17-0.01-0.25,0.03c-0.25-0.09-0.5-0.16-0.75-0.26c-0.3-0.13-0.35-0.4-0.1-0.6
		c0.25-0.21,0.23-0.31-0.06-0.46c-0.19-0.1-0.48-0.18-0.45-0.49c0.03-0.29,0.25-0.42,0.5-0.43c0.21-0.01,0.44,0.03,0.63,0.11
		c0.46,0.21,0.55,0.62,0.23,1.03c0.2,0.09,0.42,0.13,0.56,0.31c0.26-0.39,0.58-0.48,0.84-0.22c0.13,0.13,0.28,0.32,0.14,0.51
		c-0.14,0.2-0.4,0.22-0.59,0.1c-0.23-0.15-0.35-0.08-0.45,0.14c0,0,0,0.01,0,0.01c0.01,0.03-0.01,0.15-0.11,0.1l0,0
		C63.87,13.11,63.88,13.22,63.73,13.21z"/>
	<path class="st2" d="M65.24,15.75c-0.09-0.12,0.08-0.18,0.06-0.29c-0.05-0.1-0.11-0.19-0.15-0.29c-0.1-0.22-0.15-0.46,0.07-0.62
		c0.22-0.17,0.49-0.14,0.71,0.02c0.21,0.15,0.28,0.37,0.13,0.6c-0.09,0.14-0.06,0.23,0.03,0.35c0.13,0.17,0.22,0.37,0.29,0.58
		c0.02,0.07,0.07,0.18,0.02,0.2c-0.4,0.12-0.23,0.41-0.22,0.67c0,0.13-0.01,0.32-0.18,0.36c-0.16,0.03-0.35,0.14-0.49-0.07
		c-0.07-0.1-0.2-0.16-0.3-0.23c0.03-0.1,0.02-0.18-0.1-0.2C65.46,16.5,65.3,16.11,65.24,15.75z"/>
	<path class="st2" d="M62.28,22.68c0.04,0,0.06,0.27,0.33,0.31c0.28,0.1,0.27-0.18,0.53-0.33c0.43-0.25,0.58-0.9,0.28-1.31
		c-0.19-0.26-0.59-0.27-0.82-0.01c-0.07,0.09-0.12,0.17-0.24,0.2c0.01,0.09,0.03,0.18,0.04,0.27c0.05,0.01,0.1,0.03,0.15,0.02
		c0.13-0.03,0.26-0.1,0.34,0.09c0.08,0.18-0.07,0.22-0.15,0.32C62.58,22.4,62.32,22.42,62.28,22.68z"/>
	<path class="st2" d="M60.39,11.06c-0.1-0.16-0.27-0.2-0.43-0.26c-0.1-0.13-0.22-0.22-0.35-0.31c-0.11-0.08-0.16-0.21-0.13-0.35
		c0.03-0.16-0.13-0.58,0.02-0.63c0.41-0.12,1.42,0.45,1.68,0.78c0.13,0.16,0,0.3-0.04,0.44c-0.04,0.15-0.18,0.16-0.3,0.13
		C60.63,10.8,60.46,10.81,60.39,11.06z"/>
	<path class="st2" d="M58.25,11.43c0-0.02-0.04-0.1-0.04-0.14c-0.01-0.14-0.15-0.15-0.22-0.22c-0.15-0.16-0.32-0.49-0.35-0.68
		c-0.03-0.21,0.21-0.24,0.35-0.31c0.12-0.07,0.28-0.08,0.42-0.1c0.23-0.02,0.36,0.13,0.44,0.31c0.12,0.27-0.07,0.43-0.29,0.6
		c0.31,0.08,0.3,0.26,0.18,0.48C58.6,11.63,58.42,11.46,58.25,11.43C58.25,11.42,58.25,11.43,58.25,11.43z"/>
	<path class="st2" d="M64.23,23.21c0.01,0.06,0.02,0.12,0.03,0.18c0.02,0.08,0.04,0.15,0.05,0.23c0.01,0.17,0.11,0.29,0.26,0.32
		c0.18,0.03,0.38-0.16,0.39-0.26c0.03-0.23,0.16-0.45,0.1-0.69c-0.05-0.21-0.13-0.37-0.36-0.38c-0.22-0.02-0.34,0.09-0.4,0.32
		C64.26,23.02,64.26,23.12,64.23,23.21z"/>
	<path class="st2" d="M61.23,11.97c0.02-0.08,0.01-0.14-0.09-0.13c-0.03-0.02-0.06-0.04-0.09-0.07c-0.17-0.15-0.36-0.33-0.22-0.55
		c0.16-0.25,0.46-0.29,0.75-0.25c0.25,0.03,0.31,0.23,0.34,0.45c0.03,0.19-0.06,0.29-0.23,0.36C61.54,11.84,61.38,11.91,61.23,11.97
		z"/>
	<path class="st2" d="M61.33,21.02c0.1,0.02,0.16,0.07,0.12,0.19c0.12-0.01,0.25-0.02,0.37-0.02c0.16,0.01,0.34,0.04,0.36-0.19
		c0.01-0.21-0.02-0.43-0.24-0.56c-0.19-0.11-0.38-0.06-0.5,0.06C61.33,20.63,61.11,20.8,61.33,21.02z"/>
	<path class="st2" d="M63.13,24.38c0.02,0.17-0.1,0.2-0.22,0.23c-0.06,0.21-0.04,0.38,0.19,0.47c0.19,0.07,0.55-0.15,0.67-0.42
		c0.07-0.16,0.13-0.37-0.05-0.46C63.5,24.1,63.27,24.16,63.13,24.38z"/>
	<path class="st2" d="M50.65,24.82c0.36,0.03,0.23,0.32,0.07,0.39c0.16,0.17,0.12,0.4,0.48,0.15c0.25-0.18,0.33-0.55,0.17-0.76
		C51.2,24.38,50.73,24.42,50.65,24.82z"/>
	<path class="st2" d="M53.34,15.09c0.06,0.13,0.03,0.19-0.08,0.24c0.08,0.24,0.16,0.58,0.49,0.55c0.24-0.02,0.36-0.18,0.41-0.39
		c0.07-0.3,0-0.59-0.25-0.79C53.72,14.54,53.4,14.76,53.34,15.09z"/>
	<path class="st2" d="M64.01,13.53c0.09-0.24,0.26-0.3,0.49-0.21c0.3,0.11,0.56,0.52,0.42,0.73c-0.13,0.21-0.39,0.16-0.59,0.13
		C64.11,14.13,63.94,13.73,64.01,13.53z"/>
	<path class="st2" d="M51.73,15.01c0.05-0.02,0.09-0.11,0.2-0.07c0.05,0.02,0.01,0.07,0,0.12c0.19-0.1,0.57-0.03,0.46-0.41
		c-0.08-0.28-0.33-0.34-0.55-0.29c-0.24,0.05-0.23,0.28-0.18,0.49C51.68,14.9,51.71,14.96,51.73,15.01z"/>
	<path class="st2" d="M51.56,27.01c0.12,0.11,0.06,0.19-0.04,0.26c0.16,0.11,0.3,0.26,0.53,0.15c0.21-0.1,0.32-0.24,0.23-0.47
		c-0.09-0.25-0.28-0.25-0.49-0.17C51.7,26.84,51.56,26.86,51.56,27.01z"/>
	<path class="st2" d="M51.04,25.91c0.21,0,0.29,0.16,0.11,0.24c0.06,0.06,0.13,0.07,0.22,0.06c0.15-0.02,0.35,0.11,0.43-0.11
		c0.07-0.19,0.02-0.4-0.13-0.51c-0.17-0.13-0.36-0.04-0.5,0.11C51.13,25.73,51.06,25.87,51.04,25.91z"/>
	<path class="st2" d="M57.85,10.64c0.15,0.06,0.29,0.13,0.19,0.3c-0.09,0.16-0.18,0.38-0.44,0.26c-0.15-0.07-0.29-0.16-0.21-0.36
		C57.48,10.61,57.66,10.6,57.85,10.64z"/>
	<path class="st2" d="M64.49,14.48c-0.04,0.14-0.16,0.09-0.24,0.12c-0.12-0.09-0.24-0.18-0.17-0.34c0.05-0.12,0.16-0.11,0.28-0.08
		C64.55,14.22,64.5,14.35,64.49,14.48z"/>
	<path class="st2" d="M62.35,12.29c-0.03-0.11-0.09-0.09-0.16-0.05c-0.08,0.06-0.15,0.07-0.19-0.05c0.08-0.03,0.05-0.13,0.09-0.18
		c0.07-0.09,0.16-0.14,0.28-0.1c0.08,0.03,0.17,0.05,0.18,0.15C62.56,12.21,62.5,12.29,62.35,12.29z"/>
	<path class="st3" d="M41.4,22.11c-0.03,0-0.07,0-0.11,0.01c0.03,0.07,0.09,0.06,0.14,0.06C41.42,22.16,41.41,22.14,41.4,22.11z"/>
	<path class="st3" d="M61.68,12.99c-0.01,0.03-0.03,0.06-0.06,0.03c-0.01-0.01,0.02-0.05,0.02-0.08
		C61.66,12.96,61.67,12.98,61.68,12.99z"/>
	<path class="st0" d="M51.5,26.98c-0.51,0.09-1.01,0.18-1.54,0.06c-0.54-0.12-1.1-0.13-1.65-0.08c-0.36,0.03-0.72,0.03-1.08,0.03
		c0.01-0.08,0.11-0.07,0.17-0.1c1.08-0.42,2.17-0.83,3.36-0.8c0.13,0,0.26,0,0.39,0.05c0.11-0.05,0.16-0.12,0-0.24
		c-0.57-0.01-1.14,0.02-1.77,0.13c0.19-0.19,0.37-0.28,0.54-0.38c0.26-0.15,0.52-0.28,0.78-0.43c0.12-0.07,0.25-0.15,0.16-0.31
		c-0.09-0.16-0.23-0.09-0.35-0.03c-0.53,0.29-1.03,0.62-1.44,1.06c-0.11,0.12-0.24,0.21-0.4,0.27c-0.54,0.19-1.06,0.41-1.61,0.59
		c-0.83,0.27-1.69,0.19-2.54,0.08c0.47-0.04,0.93-0.11,1.38-0.23c0.39-0.11,0.74-0.29,1.07-0.53c0.11-0.08,0.2-0.18,0.11-0.31
		c-0.11-0.15-0.23-0.04-0.31,0.04c-0.74,0.67-1.64,0.76-2.59,0.76c-0.56,0-1.07-0.19-1.69-0.3c0.87-0.35,1.6-0.82,2.39-1.14
		c0.11-0.04,0.23-0.09,0.18-0.24c-0.05-0.14-0.18-0.16-0.31-0.13c-0.06,0.01-0.13,0.04-0.19,0.06c-0.36,0.13-0.69,0.32-1.01,0.53
		c-0.33,0.21-0.66,0.42-0.99,0.62c-0.45,0.27-0.91,0.23-1.45,0.02c-0.77-0.31-1.6-0.27-2.43-0.38c-0.02,0-0.04-0.03-0.14-0.1
		c0.38-0.01,0.69-0.03,1.01-0.02c0.96,0.03,1.83-0.32,2.71-0.63c0.11-0.04,0.21-0.1,0.18-0.25c-0.04-0.16-0.17-0.16-0.3-0.15
		c-0.23,0.02-0.45,0.11-0.64,0.24c-0.87,0.59-1.87,0.59-2.86,0.61c-0.64,0.02-1.28,0.03-1.93,0.04c0.02,0.08,0.04,0.16,0.06,0.24
		c0.05-0.01,0.09-0.02,0.14-0.02c0.83-0.1,1.58,0.21,2.36,0.35c0.75,0.14,1.5,0.27,2.25,0.4c0.22,0.04,0.37,0.1,0.44,0.35
		c0.07,0.23,0.21,0.45,0.33,0.66c0.19,0.32,0.35,0.65,0.49,1c0.04,0.1-0.2-0.13-0.14-0.04c0.1,0.16,0.18,0.44,0.42,0.34
		c0.23-0.1,0.38-0.03,0.33-0.21c-0.18-0.66-0.63-1.17-1.05-1.69c-0.06-0.07-0.15-0.12-0.17-0.24c0.21-0.01,0.41,0.02,0.61,0.07
		c0.06,0.02,0.13,0.04,0.19,0.05c0.75,0.1,1.36,0.43,1.83,1.04c0.18,0.23,0.44,0.39,0.7,0.54c0.12,0.07,0.26,0.14,0.36,0.01
		c0.1-0.15-0.01-0.27-0.13-0.36c-0.3-0.22-0.63-0.39-0.93-0.65c0.49-0.01,0.95-0.02,1.41-0.02c0.13,0,0.19,0.11,0.27,0.19
		c0.38,0.39,0.76,0.78,1.21,1.09c0.16,0.12,0.07-0.1,0.26-0.04c0.13,0.04,0.28,0.09,0.36-0.07c0.07-0.15,0.22,0.08,0.1,0.01
		c-0.1-0.07-0.22-0.12-0.32-0.18c-0.47-0.31-0.94-0.61-1.41-0.92c0.04-0.12,0.12-0.07,0.18-0.07c0.57-0.01,1.15-0.02,1.72-0.04
		c0.13,0,0.25,0.04,0.35,0.13c0.37,0.33,0.75,0.65,1.13,0.98c0.04,0.04,0.09,0.07,0.14,0.1c0.11,0.07,0.22,0.07,0.31-0.02
		c0.11-0.12,0.01-0.22-0.06-0.3c-0.17-0.19-0.38-0.31-0.6-0.44c-0.22-0.13-0.44-0.25-0.65-0.41c0.39-0.04,0.78-0.02,1.12,0.19
		c0.28,0.17,0.56,0.32,0.86,0.44c0.09-0.03,0.16-0.08,0.1-0.19c-0.26-0.01-0.47-0.17-0.75-0.27c0.35-0.18,0.66-0.18,0.99-0.12
		C51.71,27.15,51.69,27.09,51.5,26.98z"/>
	<path class="st0" d="M51.82,15.63c-0.14,0.05-0.17-0.01-0.13-0.14c0.05-0.16,0.13-0.31,0.24-0.43c0.02-0.04,0.06-0.09,0-0.12
		c-0.08-0.04-0.14,0.03-0.2,0.07c-0.04,0.08-0.1,0.15-0.11,0.23c-0.08,0.48-0.43,0.65-0.84,0.79c-0.51,0.17-1.02,0.38-1.61,0.6
		c0.25-0.43,0.47-0.78,0.68-1.14c0.05-0.08,0.11-0.16,0.15-0.24c0.05-0.09,0.15-0.2,0.01-0.29c-0.13-0.08-0.21,0.02-0.28,0.11
		c-0.15,0.17-0.26,0.37-0.36,0.57c-0.12,0.24-0.23,0.49-0.29,0.76c-0.04,0.2-0.13,0.32-0.33,0.4c-1.08,0.47-2.12,1.03-3.13,1.65
		c-0.05,0.04-0.1,0.09-0.18,0.05c0.04-0.03,0.07-0.06,0.1-0.09c0.47-0.4,1.03-0.67,1.49-1.09c0.28-0.25,0.57-0.49,0.8-0.79
		c0.07-0.09,0.11-0.18,0-0.27c-0.1-0.09-0.17,0-0.23,0.07c-0.54,0.68-1.24,1.18-1.92,1.7c-0.54,0.41-0.94,0.99-1.5,1.39
		c-0.06,0.04-0.11,0.09-0.17,0.14c-0.02,0.02-0.04,0.04-0.05,0.04c-0.05,0.03-0.05,0.04-0.11,0.08c-0.06,0.05-0.12,0.11-0.19,0.16
		c-0.04,0.04-0.09,0.09-0.12,0.12c-0.07,0.07-0.05,0.06-0.11,0.13c-0.02,0.02-0.05,0.07-0.07,0.09c-0.7,0.94-1.37,1.9-1.95,2.92
		c0.06,0.05,0.65-0.22,0.7-0.16c0.06-0.16,0.16-0.52,0.23-0.68c0.24-0.58,0.59-1.16,1.23-1.95c0.52-0.64,1.14-1.16,1.91-1.49
		c0.44-0.19,0.91-0.2,1.38-0.16c0.13,0.01,0.26,0.02,0.39,0.01c0.1-0.01,0.22-0.04,0.22-0.17c-0.01-0.11-0.12-0.13-0.21-0.14
		c-0.28-0.02-0.56-0.01-0.84,0.02c-0.09,0.01-0.18,0.04-0.34-0.03c0.69-0.24,1.18-0.8,1.98-0.63c0.8,0.17,1.62-0.01,2.44-0.06
		c0.11-0.01,0.27-0.03,0.26-0.19c-0.01-0.17-0.17-0.16-0.29-0.15c-0.77,0.04-1.53,0.08-2.3,0.13c-0.08,0-0.16,0.01-0.25,0
		c0.52-0.27,1.04-0.5,1.58-0.74c0.52-0.23,0.99-0.25,1.53-0.04c0.53,0.21,1.11,0.26,1.69,0.15c0.17-0.03,0.44-0.04,0.41-0.27
		c-0.03-0.22-0.28-0.12-0.43-0.11c-0.65,0.05-1.29-0.04-1.93-0.11c-0.02,0-0.04-0.03-0.08-0.06c0.85-0.41,1.74-0.66,2.62-0.95
		c0.08-0.06,0.07-0.14,0.03-0.22C52.84,15.27,52.33,15.45,51.82,15.63z"/>
	<path class="st0" d="M62.04,23.57c0.11-0.26,0.34-0.42,0.57-0.58c-0.07-0.12-0.28-0.07-0.24-0.25c0-0.07-0.04-0.06-0.09-0.06
		c-0.11,0.2-0.23,0.39-0.32,0.6c-0.1,0.23-0.24,0.35-0.49,0.4c-0.58,0.12-1.15,0.14-1.73,0.04c-0.41-0.07-0.79-0.21-1.15-0.54
		c0.22-0.04,0.39-0.07,0.55-0.1c0.84-0.19,1.73-0.2,2.49-0.66c0.31-0.19,0.66-0.13,0.98-0.26c0.07-0.03,0.17-0.07,0.14-0.17
		c-0.03-0.12-0.13-0.04-0.2-0.02c-0.11,0.02-0.22,0.09-0.38,0.05c0.09-0.09,0.15-0.15,0.22-0.21c-0.01-0.09-0.03-0.18-0.04-0.27
		c0,0-0.01-0.01-0.01-0.01c-0.02-0.02-0.03-0.04-0.07-0.04c-0.15-0.02-0.19,0.12-0.23,0.21c-0.15,0.34-0.42,0.52-0.75,0.64
		c-0.25,0.09-0.5,0.18-0.84,0.3c0.31-0.58,0.63-1.03,1.01-1.45c0.03-0.11-0.03-0.16-0.13-0.18c-0.39,0.47-0.78,0.94-1.07,1.49
		c-0.04,0.08-0.12,0.14-0.21,0.16c-0.99,0.17-1.98,0.43-3,0.3c-0.02,0-0.03-0.02-0.07-0.05c0.29-0.16,0.62-0.21,0.91-0.35
		c0.79-0.39,1.41-0.99,2.04-1.58c0.13-0.12,0.26-0.27,0.1-0.44c-0.15-0.16-0.3-0.04-0.42,0.06c-0.3,0.22-0.59,0.47-0.84,0.75
		c-0.4,0.45-0.84,0.86-1.41,1.1c-0.53,0.22-1.06,0.4-1.65,0.24c-0.37-0.1-0.76-0.11-1.22-0.18c0.62-0.28,1.06-0.69,1.5-1.08
		c0.1-0.09,0.19-0.19,0.28-0.3c0.07-0.08,0.1-0.18,0-0.28c-0.1-0.1-0.2-0.1-0.3,0c-0.15,0.14-0.29,0.28-0.44,0.43
		c-0.2,0.2-0.39,0.42-0.59,0.61c-0.31,0.29-0.67,0.48-1.11,0.43c-0.9-0.1-3.81-0.57-4.55-0.92c-0.01,0.1-1.02,0-1.04,0.09
		c0.49,0.06,2.72,0.71,4.32,0.96c0.2,0.03,0.34,0.12,0.38,0.36c0.06,0.33,0.29,0.56,0.54,0.76c0.44,0.36,0.96,0.56,1.51,0.69
		c0.15,0.03,0.32,0.04,0.37-0.14c0.04-0.17-0.11-0.24-0.24-0.28c-0.44-0.16-0.88-0.3-1.26-0.6c-0.19-0.15-0.35-0.31-0.48-0.63
		c0.62,0.1,1.19,0.2,1.76,0.3c0.04,0.01,0.08,0.11,0.11,0.17c0.28,0.62,0.79,0.98,1.38,1.26c0.12,0.06,0.28,0.13,0.37-0.01
		c0.1-0.16-0.04-0.28-0.16-0.36c-0.2-0.15-0.42-0.27-0.62-0.42c-0.21-0.15-0.42-0.31-0.56-0.56c0.14-0.04,0.26-0.01,0.37,0.03
		c0.56,0.16,1.13,0.24,1.72,0.26c0.58,0.02,1,0.33,1.35,0.75c0.35,0.42,0.69,0.84,1.14,1.17c0.12,0.08,0.26,0.22,0.39,0.07
		c0.14-0.17-0.01-0.3-0.14-0.39c-0.35-0.27-0.72-0.52-1.02-0.84c-0.03-0.02-0.06-0.05-0.09-0.07c0.04-0.05,0.09-0.03,0.13,0
		c0.45,0.04,0.91,0.04,1.35,0.13c0.44,0.09,0.86,0.28,1.29,0.41c0.26,0.08,0.52,0.16,0.8,0.15c0.12-0.04,0.24-0.09,0.19-0.25
		c-0.6,0.01-1.16-0.18-1.81-0.36c0.29-0.11,0.52-0.15,0.76-0.16c0.75-0.04,1.49-0.13,2.18-0.46c-0.02-0.06-0.03-0.12-0.05-0.17
		c-0.66,0.19-1.32,0.39-2.02,0.4C62.15,23.62,62.09,23.64,62.04,23.57z"/>
	<path class="st0" d="M60.39,11.05c-0.19,0.29-0.45,0.53-0.52,0.89c-0.07,0.33-0.18,0.65-0.29,1.04c0.62-0.28,1.03-0.79,1.55-1.14
		c0.1-0.01,0.11,0.05,0.09,0.13c-0.39,0.49-0.88,0.86-1.42,1.14c-0.34,0.18-0.56,0.47-0.69,0.8c-0.66,1.67-1.53,3.2-2.88,4.42
		c-0.06,0.06-0.08,0.08-0.09,0.12l1.04-0.31c0.97-0.36,1.6-0.62,2.57-1.2c0.07-0.04,0.13-0.12,0.17-0.2
		c0.36-0.64,0.48-0.8,0.89-1.37c0.37-0.5,0.59-0.78,0.64-1.25c0.06-0.69,0.24-1.33,0.34-2c0.01-0.04,0.05-0.08,0.08-0.13
		c0.06,0.07,0.04,0.18,0.14,0.2c0.03,0.12,0.1,0.11,0.19,0.05c0.07-0.05,0.13-0.06,0.16,0.05c-0.13,0.24-0.4,0.34-0.51,0.63
		c-0.14,0.37-0.07,0.73-0.08,1.12c0.16-0.22,0.3-0.47,0.49-0.67c0.12-0.13,0.26-0.42,0.42-0.28c0.15,0.13-0.13,0.27-0.23,0.4
		c-0.28,0.35-0.53,0.71-0.76,1.12c0.82-0.09,1.66-0.74,1.8-1.37c0.08-0.04,0.16,0,0.25-0.03c0.05-0.01,0.11-0.04,0.14-0.13
		c0.08-0.02,0.1-0.05,0.12-0.11c0.3,0.11,0.32,0.19,0.02,0.39c-0.28,0.19-0.51,0.43-0.7,0.71c-0.48,0.43-1.04,0.7-1.67,0.82
		c-0.12,0.02-0.2,0.09-0.27,0.18c-0.44,0.59-0.87,1.18-1.31,1.78c0.08,0.02,0.12,0.04,0.15,0.03c0.59-0.23,1.15-0.53,1.7-0.82
		c0.08-0.04,0.14-0.11,0.19-0.19c0.35-0.62,0.78-1.18,1.27-1.7c0.16-0.12,0.33-0.25,0.5-0.36c0.06-0.04,0.16-0.12,0.22-0.02
		c0.06,0.1-0.03,0.14-0.1,0.19c-0.28,0.21-0.56,0.42-0.79,0.69c-0.28,0.32-0.45,0.71-0.68,1.07c-0.01,0.03-0.05,0.08-0.03,0.08
		c0.04-0.01,0.02-0.01,0.06-0.02c0.66-0.25,1.19-0.71,1.71-1.18c0.08-0.04,0.2,0.01,0.24-0.12c0.1,0.03,0.18-0.04,0.27-0.07
		c0.09-0.03,0.18-0.03,0.19,0.09c0.01,0.09,0.02,0.22-0.12,0.22c-0.48,0.01-0.78,0.32-1.1,0.61c-0.39,0.34-0.84,0.56-1.29,0.8
		c0.75,0.02,1.51,0.16,2.2-0.3c0.21-0.14,0.44-0.25,0.66-0.37c0.03,0.11-0.15,0.17-0.06,0.29c-0.29,0.17-0.57,0.33-0.87,0.5
		c0.13,0.09,0.26,0.1,0.4,0.1c0.1,0,0.26,0,0.26,0.13c-0.01,0.15-0.15,0.09-0.26,0.08c-0.54-0.01-1.06-0.19-1.61-0.19
		c-0.8,0.01-1.61-0.03-2.33,0.55c1.45,0.15,2.85-0.14,4.26-0.12c0.11,0.03,0.13,0.11,0.1,0.2c-0.31,0.11-0.62,0-0.93,0.03
		c-0.48,0.03-0.96,0.08-1.43,0.12c-0.69,0.06-1.4,0.11-2.08-0.02c-0.27-0.05-0.5-0.01-0.73,0.1c-1.02,0.45-2,1.01-3.09,1.28
		c-0.42,0.1-0.8,0.25-1.18,0.43c-0.16-0.05-0.32-0.08-0.49-0.1c1.13-0.87,2.03-1.97,2.76-3.2c0.25-0.42,0.27-0.81,0.19-1.28
		c-0.15-0.89-0.28-1.8-0.24-2.71c0.01-0.1-0.01-0.19-0.01-0.29c0-0.11-0.17-0.28,0.04-0.32c0.17-0.03,0.18,0.16,0.21,0.29
		c0.01,0.03,0.03,0.06,0.04,0.09l0,0c-0.08,0.1-0.07,0.23-0.07,0.35c0.05,0.93,0.18,1.85,0.31,2.84c0.22-0.39,0.36-0.72,0.41-1.09
		c0.07-0.58,0.35-1.11,0.46-1.68c0.01-0.05,0.06-0.14,0.09-0.14c0.42-0.01,0.35-0.34,0.39-0.59c0.02-0.11,0.03-0.22,0.11-0.3
		C60.12,10.85,60.29,10.89,60.39,11.05z"/>
	<path class="st0" d="M56.66,18.38c-0.07,0-0.13-0.01-0.19-0.01c-0.06,0.01-0.12,0.01-0.19,0.01c-0.12,0-0.23-0.01-0.33-0.04
		c-0.81,0.54-1.39,0.9-1.39,0.9s-3.24,2-6.76,2c-3.52,0-8.1,2.5-8.1,2.5l-3.97,2.09L34,27.1l1-0.48c1.44-0.75,4.05-2.02,4.62-2.29
		c0.07-0.04,0.14-0.08,0.21-0.12c0.74-0.36,4.23-2.47,7.99-2.47c4.14,0,7.07-2.16,7.07-2.16s0.8-0.5,1.83-1.2
		C56.7,18.37,56.68,18.38,56.66,18.38z"/>
	<path class="st1" d="M32.8,37.22"/>
</g>
</svg>
